# xmcd
#
# Track frame offsets:
#	150
#	26698
#	46281
#	75811
#	96078
#	115774
#	149460
#	164282
#
# Disc length: 2436 seconds
#
# Revision: 0
# Processed by: cddbd v1.5.2PL0 Copyright (c) Steve Scherf et al.
# Submitted via: audiograbber 1.83.01
#
DISCID=59098208
DTITLE=Manfr Mann s Earth Band - Live in Budapest
DYEAR=1900
DGENRE=
TTITLE0=Spririt in The Night
TTITLE1=Demolition Man
TTITLE2=For You
TTITLE3=Day s on the Road Again
TTITLE4=Lies (Throught öthe 80 S)
TTITLE5=Blinded by the Light
TTITLE6=Redemtiom Song
TTITLE7=Mighty Quinn
EXTD=
EXTT0=
EXTT1=
EXTT2=
EXTT3=
EXTT4=
EXTT5=
EXTT6=
EXTT7=
PLAYORDER=
